<?xml version="1.0" encoding="UTF-8" standalone="no"?><!DOCTYPE svg PUBLIC "-//W3C//DTD SVG 1.1//EN" "http://www.w3.org/Graphics/SVG/1.1/DTD/svg11.dtd"><svg width="100%" height="100%" viewBox="0 0 1000 1000" version="1.1" xmlns="http://www.w3.org/2000/svg" xmlns:xlink="http://www.w3.org/1999/xlink" xml:space="preserve" xmlns:serif="http://www.serif.com/" style="fill-rule:evenodd;clip-rule:evenodd;stroke-linejoin:round;stroke-miterlimit:2;"><rect x="-12" y="-12" width="1024" height="1024" style="fill:#002;"/><g transform="matrix(1,0,0,0.887183,0,-9.813073)"><g transform="matrix(291.180465,0,0,291.180465,940.614051,685.127566)"></g><text x="44.508px" y="685.128px" style="font-family:'Inter-BoldItalic', 'Inter';font-weight:700;font-style:italic;font-size:291.18px;fill:#fff;">uk<tspan x="389.067px " y="685.128px ">e</tspan>bit</text></g><g><path id="dot" d="M820.793,418.072c0,-14.069 -8.99,-26.698 -19.815,-28.249c-10.917,-1.44 -19.723,8.752 -19.723,22.821c0,13.958 8.807,26.698 19.723,28.249c10.825,1.662 19.815,-8.752 19.815,-22.821Z" style="fill:#ff002a;"/><path id="dot1" serif:id="dot" d="M826.076,430.384c11.753,-11.753 16.621,-27.985 11.075,-36.123c-5.697,-8.103 -19.777,-5.155 -31.53,6.598c-11.661,11.661 -16.737,27.869 -11.133,36.065c5.454,8.23 19.835,5.213 31.588,-6.54Z" style="fill:#ff002a;"/></g></svg>